<svg enable-background="new 0 0 475 178" viewBox="0 0 475 178" xmlns="http://www.w3.org/2000/svg"><g fill="#10293e"><path d="m79.9.4h19.3l12.7 34.7c1.6 4.6 2.9 9.6 4.5 14.4h.5c1.6-4.8 2.9-9.8 4.5-14.4l12.3-34.7h19.3v78.2h-16.1v-28.7c0-7.6 1.4-19 2.3-26.6h-.5l-6.4 18.5-11.1 30h-9.8l-11.1-30-6.3-18.4h-.5c.8 7.6 2.3 18.9 2.3 26.6v28.7h-15.9z"/><path d="m185.9.4h21.2l24.6 78.2h-18.7l-10.3-39.6c-2.2-7.8-4.3-17.1-6.4-25.2h-.5c-1.9 8.3-4 17.4-6.2 25.2l-10.3 39.6h-18.1zm-8.3 45.9h37.6v13.7h-37.6z"/><path d="m239.2.4h28.2c16.6 0 30.2 5.8 30.2 24.4 0 18-13.6 25.7-30.2 25.7h-10.5v28.1h-17.7zm26.7 36.1c9.3 0 14.3-4 14.3-11.7s-5-10.3-14.3-10.3h-9v22zm-1.8 9.3 12.2-11.3 25 44.1h-19.8z"/><path d="m325.9 15.3h-21.5v-14.9h60.7v14.8h-21.5v63.4h-17.7z"/><path d="m377.3.4h17.7v78.2h-17.7z"/><path d="m413.4.4h18.1l20.5 38.9 7.7 17.2h.5c-.8-8.3-2.3-19.2-2.3-28.4v-27.7h16.8v78.2h-18.1l-20.4-39-7.7-17.1h-.5c.8 8.6 2.3 19.1 2.3 28.3v27.8h-16.8v-78.2z"/><path d="m24.7 99.7h21.2l24.6 78.2h-18.8l-10.2-39.6c-2.2-7.8-4.3-17.1-6.4-25.2h-.5c-1.9 8.3-4 17.4-6.2 25.2l-10.3 39.6h-18zm-8.4 45.8h37.7v13.7h-37.7z"/><path d="m79.8.5h16.5v177h-16.5z"/><path d="m322.7 123.7-.3 1.7h-1.3v-25.9h1.6v7.5l-.1 3.4c1.7-1.5 3.8-2.7 6-2.7 4.6 0 6.9 3.5 6.9 8.8 0 5.9-3.5 9.3-7.6 9.3-1.6 0-3.5-.8-5.2-2.1zm11.2-7.2c0-4.2-1.5-7.4-5.5-7.4-1.7 0-3.6 1-5.6 2.9v10.3c1.9 1.6 3.8 2.2 5.1 2.2 3.4-.1 6-3.3 6-8z"/><path d="m338.1 132.9.4-1.4c.4.1.9.3 1.4.3 2.1 0 3.5-2 4.4-4.6l.5-1.5-7.1-17.6h1.7l4.2 10.9c.6 1.5 1.3 3.3 1.9 4.9h.1c.6-1.5 1.1-3.4 1.6-4.9l3.7-10.9h1.6l-6.8 19.5c-1 2.9-2.7 5.7-5.8 5.7-.6 0-1.3-.2-1.8-.4z"/><path d="m363.7 101.7h2.3l5 13.9c.6 1.7 1.2 3.5 1.9 5.3h.1c.6-1.8 1.2-3.5 1.8-5.3l4.9-13.9h2.3v23.7h-1.6v-15.6c0-1.9.1-4.4.2-6.4h-.1l-1.8 5.3-5.1 14.1h-1.4l-5.1-14.1-1.9-5.3h-.2c.1 2 .2 4.5.2 6.4v15.6h-1.5z"/><path d="m389.1 101.7h1.7v23.7h-1.7z"/><path d="m397.7 101.7h1.7l10 16.7 2.7 4.7h.1c-.1-2.3-.2-4.6-.2-6.9v-14.5h1.6v23.7h-1.7l-10-16.7-2.7-4.7h-.1c.1 2.3.2 4.4.2 6.7v14.7h-1.6z"/><path d="m419.1 113.5c0-7.5 4.1-12.2 10.1-12.2 2.8 0 4.9 1.4 6.2 2.8l-1 1.1c-1.3-1.5-3-2.4-5.2-2.4-5.2 0-8.4 4.1-8.4 10.7s3.2 10.9 8.3 10.9c2.4 0 4.3-1 6-2.9l1 1c-1.8 2.1-4 3.4-7.1 3.4-5.8-.1-9.9-4.9-9.9-12.4z"/><path d="m440.9 101.7h13v1.4h-11.3v9h9.5v1.4h-9.5v10.5h11.7v1.4h-13.3v-23.7z"/><path d="m459.5 101.7h6.8c4.7 0 7.8 1.7 7.8 6.3 0 4.3-3.1 6.6-7.8 6.6h-5.1v10.9h-1.7zm6.3 11.4c4.2 0 6.5-1.7 6.5-5.2 0-3.6-2.3-4.9-6.5-4.9h-4.7v10h4.7zm.1.9 1.6-.5 7 11.9h-1.9z"/></g></svg>